<svg width="399" height="222" viewBox="0 0 399 222" fill="none" xmlns="http://www.w3.org/2000/svg">
<path d="M37.8955 24.3068C37.8955 10.8825 48.778 0 62.2023 0H336.81C350.234 0 361.116 10.8825 361.116 24.3068V217.954H37.8955V24.3068Z" fill="#272523"/>
<path d="M40.4009 19.7195C40.4009 9.95634 48.3155 2.04175 58.0786 2.04175H341.047C350.81 2.04175 358.725 9.95632 358.725 19.7194V209.276H40.4009V19.7195Z" fill="#272523"/>
<rect x="49.1704" y="15.1042" width="300.659" height="184.036" rx="8" fill="#272523"/>
<rect x="49.2212" y="15.1663" width="300.503" height="184.036" rx="8" fill="#D9D9D9"/>
<path d="M0 215.682H399V217.788C399 217.788 380.828 222 360.208 222C339.588 222 59.4118 221.789 38.7917 221.789C18.1715 221.789 0 217.788 0 217.788V215.682Z" fill="url(#paint0_linear_150_2197)"/>
<path d="M0 216.553C0 215.943 0.494661 215.448 1.10486 215.448H397.895C398.505 215.448 399 215.943 399 216.553V217.788H0V216.553Z" fill="url(#paint1_linear_150_2197)"/>
<path d="M169.858 215.448H229.399V215.448C229.399 216.741 228.352 217.788 227.059 217.788H172.198C170.906 217.788 169.858 216.741 169.858 215.448V215.448Z" fill="url(#paint2_linear_150_2197)"/>
<defs>
<linearGradient id="paint0_linear_150_2197" x1="199.5" y1="215.682" x2="199.5" y2="222" gradientUnits="userSpaceOnUse">
<stop stop-color="#80868A"/>
<stop offset="1" stop-color="#2A2C2F"/>
</linearGradient>
<linearGradient id="paint1_linear_150_2197" x1="8.38112e-07" y1="216.618" x2="399" y2="216.618" gradientUnits="userSpaceOnUse">
<stop stop-color="#2A2C2F"/>
<stop offset="0.208333" stop-color="#80868A"/>
<stop offset="0.770833" stop-color="#80868A"/>
<stop offset="1" stop-color="#2A2C2F"/>
</linearGradient>
<linearGradient id="paint2_linear_150_2197" x1="169.858" y1="216.618" x2="229.399" y2="216.618" gradientUnits="userSpaceOnUse">
<stop stop-color="#2A2C2F"/>
<stop offset="0.229167" stop-color="#80868A"/>
<stop offset="0.802083" stop-color="#80868A"/>
<stop offset="1" stop-color="#2A2C2F"/>
</linearGradient>
</defs>
</svg>
