<?xml version="1.0" encoding="iso-8859-1"?>
<!-- Uploaded to: SVG Repo, www.svgrepo.com, Generator: SVG Repo Mixer Tools -->
<svg version="1.1" id="Layer_1" xmlns="http://www.w3.org/2000/svg" xmlns:xlink="http://www.w3.org/1999/xlink" 
	 viewBox="0 0 512 512" xml:space="preserve">
<path style="fill:#23A24D;" d="M481.455,96v116.364c0,25.6-20.945,46.545-46.545,46.545h-93.091v244.364H167.273V363.636H74.182
	c-25.6,0-46.545-20.945-46.545-46.545V200.727c0-25.6,20.945-46.545,46.545-46.545s46.545,20.945,46.545,46.545v69.818h46.545V96
	c0-48.058,39.331-87.273,87.273-87.273S341.818,47.942,341.818,96v69.818h46.545V96c0-25.6,20.945-46.545,46.545-46.545
	C460.509,49.455,481.455,70.4,481.455,96z"/>
<path style="fill:#008B45;" d="M167.273,132.039v138.506h-46.545v-69.818c0-25.6-20.945-46.545-46.545-46.545
	s-46.545,20.945-46.545,46.545v116.364c0,25.6,20.945,46.545,46.545,46.545h93.091v139.636h174.545V343.118
	C261.431,295.746,199.05,221.214,167.273,132.039z"/>
<path d="M333.091,96v78.545h64V96c0-20.852,16.965-37.818,37.818-37.818S472.727,75.148,472.727,96v116.364
	c0,20.852-16.965,37.818-37.818,37.818h-84.364v-43.636h-17.455v162.906h17.455V267.636h84.364
	c30.477,0,55.273-24.796,55.273-55.273V96c0-30.477-24.796-55.273-55.273-55.273S379.636,65.523,379.636,96v61.091h-29.091V96
	c0-52.935-43.066-96-96-96v17.455C297.856,17.455,333.091,52.689,333.091,96z"/>
<path d="M350.545,392.723h-17.455v101.823H176V305.455h-17.455v49.455H74.182c-20.852,0-37.818-16.966-37.818-37.818V200.727
	c0-20.852,16.966-37.818,37.818-37.818S112,179.875,112,200.727v78.545h64V96c0-29.064,16.061-55.66,41.914-69.412l-8.197-15.41
	C178.154,27.967,158.545,60.468,158.545,96v165.818h-29.091v-61.091c0-30.477-24.796-55.273-55.273-55.273
	s-55.273,24.796-55.273,55.273v116.364c0,30.477,24.796,55.273,55.273,55.273h84.364v122.182H45.091V512h407.273v-17.455H350.545
	V392.723z"/>
<rect x="469.818" y="494.545" width="23.273" height="17.455"/>
<rect x="202.182" y="104.727" style="fill:#FFFFFF;" width="23.273" height="17.455"/>
<rect x="225.455" y="128" width="23.273" height="17.455"/>
<rect x="272" y="186.182" width="23.273" height="17.455"/>
<rect x="213.818" y="221.091" width="23.273" height="17.455"/>
<rect x="237.091" y="244.364" style="fill:#FFFFFF;" width="23.273" height="17.455"/>
<rect x="272" y="325.818" width="23.273" height="17.455"/>
<rect x="213.818" y="360.727" style="fill:#FFFFFF;" width="23.273" height="17.455"/>
<rect x="272" y="407.273" width="23.273" height="17.455"/>
<g>
	<rect x="248.727" y="430.545" style="fill:#FFFFFF;" width="23.273" height="17.455"/>
	<rect x="272" y="69.818" style="fill:#FFFFFF;" width="23.273" height="17.455"/>
	<rect x="434.909" y="104.727" style="fill:#FFFFFF;" width="23.273" height="17.455"/>
</g>
<rect x="411.636" y="128" width="23.273" height="17.455"/>
<rect x="423.273" y="186.182" width="23.273" height="17.455"/>
<rect x="376.727" y="209.455" style="fill:#FFFFFF;" width="23.273" height="17.455"/>
<rect x="50.909" y="197.818" width="23.273" height="17.455"/>
<g>
	<rect x="74.182" y="221.091" style="fill:#FFFFFF;" width="23.273" height="17.455"/>
	<rect x="62.545" y="290.909" style="fill:#FFFFFF;" width="23.273" height="17.455"/>
</g>
<rect x="109.091" y="314.182" width="23.273" height="17.455"/>
</svg>