<svg width="50" height="52" viewBox="0 0 50 52" fill="none" xmlns="http://www.w3.org/2000/svg">
<rect x="15.625" y="28.125" width="8.4375" height="3.4375" fill="#08B7C9"/>
<rect x="14.0625" y="26.875" width="1.5625" height="4.6875" fill="#08B7C9"/>
<rect x="27.5" y="35.3125" width="8.75" height="1.5625" fill="#08B7C9"/>
<rect x="29.0625" y="33.4375" width="8.75" height="1.875" fill="#08B7C9"/>
<rect x="35" y="31.5625" width="4.375" height="1.875" fill="#08B7C9"/>
<rect x="35.9375" y="26.875" width="3.4375" height="4.6875" fill="#08B7C9"/>
<rect x="37.5" y="17.5" width="1.875" height="9.375" fill="#08B7C9"/>
<rect x="39.375" y="19.0625" width="1.5625" height="15.9375" fill="#077B98"/>
<rect x="37.8125" y="33.4375" width="1.5625" height="3.4375" fill="#077B98"/>
<rect x="36.25" y="35.3125" width="1.5625" height="3.125" fill="#077B98"/>
<rect x="29.0625" y="36.875" width="7.1875" height="1.5625" fill="#077B98"/>
<rect x="36.25" y="17.5" width="1.25" height="1.5625" fill="#08B7C9"/>
<rect x="36.25" y="19.0625" width="1.25" height="7.8125" fill="#19DEC8"/>
<rect x="35.9375" y="17.5" width="0.3125" height="9.375" fill="#08B7C9"/>
<rect x="12.5" y="14.375" width="1.5625" height="17.1875" fill="#08B7C9"/>
<rect x="10.9375" y="24.6875" width="1.5625" height="5.3125" fill="#08B7C9"/>
<rect x="10.9375" y="14.375" width="1.5625" height="2.5" fill="#08B7C9"/>
<rect x="9.375" y="15.9375" width="1.5625" height="12.1875" fill="#08B7C9"/>
<rect x="9.375" y="28.125" width="1.5625" height="1.875" fill="#077B98"/>
<rect x="10.625" y="30" width="1.875" height="1.5625" fill="#077B98"/>
<rect x="12.5" y="31.5625" width="8.4375" height="1.875" fill="#077B98"/>
<rect x="10.9375" y="16.875" width="1.5625" height="7.8125" fill="#19DEC8"/>
<rect x="20.9375" y="31.5625" width="3.125" height="3.4375" fill="#08B7C9"/>
<rect x="20.9375" y="35" width="1.5625" height="16.875" fill="#08B7C9"/>
<rect x="24.0625" y="41.5625" width="1.5625" height="9.375" fill="#08B7C9"/>
<rect x="22.5" y="5.625" width="5" height="1.25" fill="#08B7C9"/>
<rect x="21.25" y="6.875" width="6.25" height="1.25" fill="#08B7C9"/>
<rect x="24.0625" y="8.125" width="3.4375" height="33.4375" fill="#08B7C9"/>
<rect x="27.5" y="6.875" width="1.5625" height="28.4375" fill="#077B98"/>
<rect x="22.5" y="35" width="1.5625" height="16.875" fill="#077B98"/>
<rect x="24.0625" y="50.9375" width="5" height="0.9375" fill="#077B98"/>
<rect x="25.625" y="41.5625" width="3.4375" height="9.375" fill="#077B98"/>
<rect x="27.5" y="36.875" width="1.5625" height="4.6875" fill="#077B98"/>
<rect x="20.9375" y="8.125" width="1.5625" height="20" fill="#08B7C9"/>
<rect x="22.5" y="8.125" width="1.5625" height="20" fill="#19DEC8"/>
<rect x="0.9375" y="17.5" width="6.5625" height="4.375" fill="#F62972"/>
<rect y="21.875" width="7.5" height="2.8125" fill="#FDB800"/>
<rect y="24.6875" width="7.5" height="3.75" fill="#F62972"/>
<path d="M9.375 33.4375H0.9375V30H8.4375V31.875H9.375V33.4375Z" fill="#F62972"/>
<path d="M19.0625 43.4375H6.875V42.1875H5V40.3125H19.0625V43.4375Z" fill="#F62972"/>
<path d="M19.0625 49.375H15V48.4375H12.8125V46.875H9.375V45.9375H19.0625V49.375Z" fill="#F62972"/>
<path d="M19.0625 38.125H3.75V37.5H2.5V35H19.0625V38.125Z" fill="#F62972"/>
<rect x="15.625" y="17.5" width="3.4375" height="4.0625" fill="#F62972"/>
<rect x="15.625" y="21.5625" width="3.4375" height="3.125" fill="#FDB800"/>
<rect x="15.625" y="24.6875" width="3.4375" height="1.5625" fill="#F62972"/>
<rect x="41.25" y="17.5" width="7.8125" height="1.25" fill="#F62972"/>
<rect x="42.8125" y="18.75" width="6.25" height="2.8125" fill="#F62972"/>
<rect x="42.8125" y="21.5625" width="7.1875" height="3.125" fill="#FDB800"/>
<rect x="42.8125" y="24.6875" width="7.1875" height="3.75" fill="#F62972"/>
<rect x="42.8125" y="30" width="6.25" height="3.4375" fill="#F62972"/>
<path d="M43.125 43.4375H30.9375V40.3125H45V42.1875H43.125V43.4375Z" fill="#F62972"/>
<path d="M35 49.375H30.9375V45.9375H40.625V46.875H36.875V48.4375H35V49.375Z" fill="#F62972"/>
<path d="M46.0762 38.125H40V36.875H41.7363V35H47.8125V37.5H46.0762V38.125Z" fill="#F62972"/>
<rect x="30.9375" y="17.1875" width="3.4375" height="4.375" fill="#F62972"/>
<rect x="30.9375" y="21.5625" width="3.4375" height="3.125" fill="#FDB800"/>
<rect x="30.9375" y="24.6875" width="3.4375" height="3.75" fill="#F62972"/>
<rect x="30.9375" y="29.375" width="3.4375" height="1.5625" fill="#F62972"/>
<path d="M19.0625 17.5H15.625V14.0625H14.375V12.8125H10.625V14.0625H9.0625V15.625H7.5V17.5H2.5V13.75H3.75V11.875H5V9.6875H6.25V8.4375H7.5V7.1875H8.75V6.25H10V5H11.5625V3.75H13.125V2.5H16.25V1.25H20.3125V0H29.6875V1.25H33.4375V2.5H36.5625V3.75H38.75V5H40.3125V5.9375H41.5625V6.875H42.8125V8.125H44.0625V9.6875H45.3125V11.5625H46.5625V13.75H47.8125V17.5H39.6875V15.625H36.25V17.1875H30.9375V6.875H29.375V5H27.8125V3.75H22.5V5H20.9375V6.25H20.625V6.875H19.0625V17.5Z" fill="#FDB800"/>
</svg>
